PathFileType	4	(X/Y/Z)	./resultDataOpenSim/trcMotMarkerGrf/sub06/qtm-15-08.trc
DataRate	CameraRate	NumFrames	NumMarkers	Units	OrigDataRate	OrigDataStartFrame	OrigNumFrames
250.000000	250.000000	11	24	m	250.000000	183	487
Frame#	Time	L.Toe.Tip			R.Toe.Tip			L.Ankle.Lat			R.Ankle.Lat			L.Ankle.Med			R.Ankle.Med			L.Heel			R.Heel			L.Knee.Lat			R.Knee.Lat			L.Knee.Med			R.Knee.Med			L.Thigh.Upper			R.Thigh.Upper			L.ASIS			R.ASIS			V.Sacral			L.Acromium			R.Acromium			C7			L.Elbow			R.Elbow			L.Wrist.Lat			R.Wrist.Lat
		X1	Y1	Z1	X2	Y2	Z2	X3	Y3	Z3	X4	Y4	Z4	X5	Y5	Z5	X6	Y6	Z6	X7	Y7	Z7	X8	Y8	Z8	X9	Y9	Z9	X10	Y10	Z10	X11	Y11	Z11	X12	Y12	Z12	X13	Y13	Z13	X14	Y14	Z14	X15	Y15	Z15	X16	Y16	Z16	X17	Y17	Z17	X18	Y18	Z18	X19	Y19	Z19	X20	Y20	Z20	X21	Y21	Z21	X22	Y22	Z22	X23	Y23	Z23	X24	Y24	Z24

183	0.728	0.079885062	-0.063946562	-0.046176076	-0.63355244	0.089785118	0.090829806	-0.03880977	-0.030489555	-0.09426837	-0.63090627	0.23037314	0.10041864	-0.057107448	-0.017278024	-0.010807277	-0.58441426	0.2055767	0.025387022	-0.11991661	-0.060176644	-0.068962609	-0.64246586	0.26883854	0.028684182	0.0027453587	0.35085258	-0.096133009	-0.26934918	0.329286	0.17933289	-0.053644931	0.34508093	0.015593526	-0.25533409	0.30505279	0.047263498	-0.12411414	0.71415806	-0.17736948	-0.23126817	0.68479002	0.15706593	-0.066431394	0.74903819	-0.10537083	-0.12148825	0.74238989	0.12407138	-0.2733095	0.8299348	-0.027851125	-0.16241178	1.2192572	-0.22216927	-0.19927399	1.2301166	0.13757353	-0.25135689	1.2535639	-0.056289652	-0.2944767	0.94431702	-0.25521462	-0.22461275	0.91715254	0.25004449	-0.27063968	0.71139737	-0.32281883	0.0061576541	0.8242318	0.21660582
184	0.732	0.079836785	-0.064017878	-0.046633254	-0.61709959	0.092771491	0.091246302	-0.038660283	-0.030785149	-0.094887935	-0.61459601	0.23340528	0.10035162	-0.056388439	-0.016831128	-0.011380521	-0.56849734	0.2085744	0.024738915	-0.11993877	-0.06004489	-0.069257581	-0.62694978	0.27214454	0.028642632	0.0079757883	0.35078743	-0.097362937	-0.25355888	0.32798609	0.18039991	-0.043846757	0.34561195	0.014785532	-0.24052613	0.30607227	0.048065893	-0.12032917	0.71340708	-0.17766998	-0.2239886	0.68443698	0.15775511	-0.060653122	0.74855973	-0.10724233	-0.1148798	0.74066416	0.12321529	-0.26778115	0.82968398	-0.02683722	-0.15286721	1.2187509	-0.22299223	-0.19099202	1.2301615	0.13800081	-0.24160427	1.2549646	-0.05700337	-0.2835264	0.94270823	-0.25729006	-0.21974386	0.91608314	0.24805273	-0.25923575	0.70998495	-0.32412661	0.0097637493	0.8204515	0.2179475
185	0.736	0.079785481	-0.064091163	-0.046961491	-0.59993955	0.095619094	0.091367119	-0.038593704	-0.031061654	-0.095518751	-0.59773254	0.23632665	0.10048184	-0.056193544	-0.016498171	-0.012023681	-0.55225349	0.21150868	0.024136722	-0.11996615	-0.059953891	-0.069664694	-0.61138844	0.27527661	0.028728613	0.012645137	0.35040591	-0.098623907	-0.23754706	0.32695224	0.18140111	-0.034121692	0.34560295	0.013955165	-0.22585723	0.30740648	0.049169538	-0.11611211	0.71256291	-0.17790018	-0.21653828	0.68467899	0.15809991	-0.054725018	0.74819681	-0.10920775	-0.1082004	0.73935497	0.12217304	-0.26219802	0.82940026	-0.026004335	-0.14348886	1.2185636	-0.22350175	-0.18232878	1.23042	0.13817664	-0.23202414	1.2563457	-0.057459914	-0.27232975	0.9414073	-0.25911834	-0.21506603	0.91549165	0.2459471	-0.24742447	0.70890948	-0.32542498	0.012979247	0.8166505	0.21934571
186	0.74	0.079779089	-0.064166397	-0.047167281	-0.58211096	0.098374938	0.091215591	-0.038539919	-0.031330679	-0.096055725	-0.58052278	0.23911243	0.10072342	-0.056234367	-0.016305013	-0.012556067	-0.53580275	0.21440804	0.023687583	-0.11997928	-0.059878019	-0.070024177	-0.59566166	0.27821636	0.028959967	0.016971269	0.34978136	-0.099871425	-0.22136541	0.3262215	0.18231034	-0.024749503	0.34508745	0.013069574	-0.21112574	0.30884354	0.050402298	-0.11139935	0.71184526	-0.17823898	-0.20871628	0.68508658	0.15783159	-0.048646853	0.74804892	-0.11120348	-0.10143102	0.73858767	0.12093438	-0.25643716	0.82914416	-0.025435774	-0.1341829	1.2186615	-0.22370471	-0.1734043	1.2308628	0.1381328	-0.22267148	1.2576705	-0.05766817	-0.26089965	0.94048735	-0.26066576	-0.21054376	0.91542538	0.2437986	-0.23520445	0.70821179	-0.32670576	0.015898006	0.81286011	0.22080195
187	0.744	0.079805302	-0.064226569	-0.047266077	-0.56373539	0.10102092	0.090834509	-0.038419201	-0.031600331	-0.096410159	-0.56329006	0.24162926	0.10093015	-0.056300376	-0.016265824	-0.012843133	-0.51929172	0.21736123	0.023377415	-0.11995719	-0.05978912	-0.07023541	-0.57965751	0.28097107	0.02937807	0.021014057	0.34890066	-0.10108452	-0.20506088	0.32581202	0.18310515	-0.016092706	0.34410833	0.012104526	-0.19611333	0.3101768	0.051588345	-0.10618467	0.71141687	-0.17878195	-0.20079048	0.68528581	0.15663382	-0.042488451	0.74816122	-0.11316584	-0.094626192	0.73839645	0.11958411	-0.25044012	0.82902537	-0.02522825	-0.12486993	1.2189998	-0.22364366	-0.16434609	1.231448	0.13794225	-0.21357546	1.2589098	-0.057655176	-0.24926365	0.9399573	-0.26197835	-0.20611554	0.9158734	0.24166183	-0.22258992	0.70789201	-0.32796435	0.018611277	0.80912711	0.22232025
188	0.748	0.079855521	-0.064261556	-0.047284147	-0.54494919	0.10349811	0.090286825	-0.038181245	-0.031865438	-0.096571881	-0.54610671	0.2438159	0.10107546	-0.056340817	-0.016369738	-0.012899207	-0.50289323	0.22051797	0.023069326	-0.11988617	-0.059664629	-0.070297132	-0.56336039	0.28353979	0.030012609	0.024725265	0.34771555	-0.1022547	-0.18863444	0.32570405	0.18376413	-0.0084698396	0.34272021	0.011126149	-0.18068986	0.31128705	0.052731875	-0.1005004	0.71134431	-0.17953677	-0.19303355	0.6851923	0.15458451	-0.036360406	0.74850717	-0.11503469	-0.087896981	0.73874364	0.11824433	-0.24426872	0.82913701	-0.025439462	-0.11551583	1.2195286	-0.22338076	-0.15526642	1.2321364	0.1376748	-0.20474521	1.2600509	-0.057468656	-0.23747947	0.93975663	-0.26316244	-0.20174308	0.91677933	0.23955214	-0.20960811	0.70789715	-0.32919032	0.021128858	0.8054893	0.22391135
189	0.752	0.07992309	-0.064282234	-0.047255026	-0.52584427	0.10574956	0.089652096	-0.037829899	-0.032110299	-0.096595791	-0.52877963	0.24573198	0.10126767	-0.056352242	-0.016545756	-0.012833506	-0.486677	0.22390473	0.022710028	-0.11976555	-0.059499029	-0.070281042	-0.54683955	0.28589207	0.030855506	0.028027105	0.34618614	-0.10338664	-0.17205687	0.32587097	0.18427892	-0.0020272175	0.34101124	0.010285078	-0.16492057	0.31218497	0.053799626	-0.094403013	0.71159825	-0.18043861	-0.18544671	0.68511338	0.1524303	-0.030339398	0.74902798	-0.11675885	-0.081327589	0.73955532	0.11700499	-0.23803635	0.82949067	-0.026032242	-0.10615476	1.2202045	-0.22297531	-0.14625756	1.2329011	0.13738065	-0.19617498	1.2611073	-0.057166165	-0.22565192	0.93979384	-0.26430505	-0.19742555	0.91806852	0.23745452	-0.196294	0.70813422	-0.33035937	0.02340948	0.80196843	0.22558396
190	0.756	0.079983288	-0.064315814	-0.047198694	-0.50647072	0.10774339	0.089014986	-0.037426517	-0.032316801	-0.096540467	-0.5111633	0.247435	0.10159611	-0.056300463	-0.01668261	-0.012733232	-0.47035085	0.22723101	0.022484369	-0.11960374	-0.059305865	-0.070264222	-0.53020397	0.28797501	0.031853382	0.030879936	0.34431915	-0.10447316	-0.15531307	0.32631305	0.18466166	0.0032443824	0.33910642	0.0097192405	-0.1490387	0.31297536	0.054557176	-0.087957298	0.71208816	-0.18139191	-0.17819415	0.68552209	0.15109571	-0.02441948	0.74968777	-0.11830538	-0.074935343	0.7407471	0.11591014	-0.23180611	0.83002687	-0.026893131	-0.096850876	1.2209997	-0.22247855	-0.13739926	1.2337393	0.13709423	-0.18784801	1.2621062	-0.056800181	-0.2139198	0.93998367	-0.26541108	-0.19315886	0.91967568	0.23535453	-0.1826868	0.70850878	-0.3314347	0.025420273	0.79857622	0.22733493
191	0.76	0.08000593	-0.064384473	-0.047112525	-0.48685726	0.10947338	0.088443122	-0.037065358	-0.032470521	-0.096438389	-0.4932921	0.24891456	0.10205536	-0.056127956	-0.016720205	-0.012601988	-0.45326461	0.22997347	0.022654069	-0.11943837	-0.059107585	-0.070252954	-0.51352674	0.28975235	0.032928481	0.033338732	0.3421904	-0.10543886	-0.13841495	0.32705866	0.18493541	0.0074267435	0.33714154	0.0094785803	-0.13324149	0.31378183	0.054775914	-0.081226961	0.71270166	-0.18230903	-0.17166427	0.68668332	0.1509654	-0.018527611	0.75048962	-0.11966785	-0.068704052	0.74223537	0.11498638	-0.22557971	0.83067776	-0.027909076	-0.087631083	1.2219016	-0.22194147	-0.12876676	1.2346709	0.13684143	-0.17974394	1.2630704	-0.05640939	-0.20237029	0.94025101	-0.26647514	-0.18890045	0.92155763	0.23325835	-0.16882545	0.70896176	-0.33237503	0.02715531	0.79531372	0.22915631
192	0.764	0.079987496	-0.064477428	-0.046992892	-0.46702414	0.11095535	0.087964186	-0.036818295	-0.032565742	-0.096312989	-0.47529518	0.25012705	0.10258286	-0.055850369	-0.016689719	-0.012414742	-0.43501391	0.23181476	0.023266671	-0.11932919	-0.058919815	-0.070198159	-0.49679319	0.2912273	0.034012115	0.035573984	0.33992352	-0.10611592	-0.12138563	0.32815113	0.18511972	0.010611567	0.33523252	0.0095236105	-0.11755399	0.31470458	0.054456473	-0.074277958	0.71332073	-0.18311141	-0.16595723	0.68851549	0.15174904	-0.012587068	0.75145085	-0.12086612	-0.062608202	0.74396154	0.11423986	-0.21934268	0.83140619	-0.02901361	-0.078481828	1.2229041	-0.22140365	-0.12042084	1.2357139	0.13663918	-0.17184691	1.2640154	-0.056023966	-0.19098433	0.94053365	-0.26755378	-0.18460967	0.923683	0.23118886	-0.15473502	0.7094769	-0.33315088	0.028623923	0.7921822	0.2310511
193	0.768	0.079957947	-0.064552189	-0.046855625	-0.44699392	0.11222482	0.087571594	-0.036683715	-0.032609164	-0.096189718	-0.45729248	0.25104149	0.10311419	-0.055626657	-0.016652916	-0.012208562	-0.4160284	0.23299721	0.02410999	-0.11930623	-0.05874478	-0.070088293	-0.4799594	0.29240271	0.035057383	0.037828053	0.33765073	-0.10630103	-0.10424697	0.32963129	0.18522168	0.01284133	0.33345668	0.0097521019	-0.10190046	0.31583474	0.053780334	-0.067163451	0.7138258	-0.18373012	-0.16062385	0.69067048	0.15280824	-0.0065760874	0.75257257	-0.12192427	-0.056614458	0.74590152	0.11364348	-0.21309063	0.83220227	-0.030178325	-0.069401006	1.2239947	-0.22087327	-0.1123864	1.2368626	0.13649431	-0.16414807	1.2649586	-0.055680042	-0.17969814	0.94080247	-0.26869743	-0.18031887	0.92600947	0.22916851	-0.1404189	0.71005993	-0.33376539	0.029842068	0.78920696	0.23303507
